<mxfile host="app.diagrams.net" modified="2024-06-26T13:41:42.126Z" agent="Mozilla/5.0 (Windows NT 10.0; Win64; x64) AppleWebKit/537.36 (KHTML, like Gecko) Chrome/126.0.0.0 Safari/537.36 Edg/126.0.0.0" etag="i8anA7dlK4QISiLKRWwy" version="24.5.2" type="device">
  <diagram name="第 1 页" id="l1LXV91ZYVfJSuz6JJCy">
    <mxGraphModel dx="1783" dy="949" grid="1" gridSize="10" guides="1" tooltips="1" connect="1" arrows="1" fold="1" page="1" pageScale="1" pageWidth="1654" pageHeight="1169" math="0" shadow="0">
      <root>
        <mxCell id="0" />
        <mxCell id="1" parent="0" />
        <mxCell id="weP9L8vADEcOZROMxbaX-119" value="" style="rounded=0;whiteSpace=wrap;html=1;dashed=1;dashPattern=12 12;" vertex="1" parent="1">
          <mxGeometry x="977" y="200" width="610" height="200" as="geometry" />
        </mxCell>
        <mxCell id="weP9L8vADEcOZROMxbaX-22" style="edgeStyle=orthogonalEdgeStyle;rounded=0;orthogonalLoop=1;jettySize=auto;html=1;exitX=1;exitY=0.5;exitDx=0;exitDy=0;entryX=0;entryY=0.5;entryDx=0;entryDy=0;" edge="1" parent="1" source="weP9L8vADEcOZROMxbaX-1" target="weP9L8vADEcOZROMxbaX-2">
          <mxGeometry relative="1" as="geometry" />
        </mxCell>
        <mxCell id="weP9L8vADEcOZROMxbaX-23" value="pc_if_inst_addr" style="edgeLabel;html=1;align=center;verticalAlign=middle;resizable=0;points=[];" vertex="1" connectable="0" parent="weP9L8vADEcOZROMxbaX-22">
          <mxGeometry x="0.2296" y="-1" relative="1" as="geometry">
            <mxPoint x="-12" y="9" as="offset" />
          </mxGeometry>
        </mxCell>
        <mxCell id="weP9L8vADEcOZROMxbaX-1" value="program_counter" style="rounded=0;whiteSpace=wrap;html=1;" vertex="1" parent="1">
          <mxGeometry x="67" y="670" width="120" height="60" as="geometry" />
        </mxCell>
        <mxCell id="weP9L8vADEcOZROMxbaX-2" value="instruction_fetch" style="rounded=0;whiteSpace=wrap;html=1;" vertex="1" parent="1">
          <mxGeometry x="277" y="670" width="120" height="60" as="geometry" />
        </mxCell>
        <mxCell id="weP9L8vADEcOZROMxbaX-4" value="" style="ellipse;shape=cloud;whiteSpace=wrap;html=1;" vertex="1" parent="1">
          <mxGeometry x="497" y="678" width="60" height="40" as="geometry" />
        </mxCell>
        <mxCell id="weP9L8vADEcOZROMxbaX-31" style="edgeStyle=orthogonalEdgeStyle;rounded=0;orthogonalLoop=1;jettySize=auto;html=1;exitX=0;exitY=0.5;exitDx=0;exitDy=0;entryX=0;entryY=0.5;entryDx=0;entryDy=0;startArrow=oval;startFill=1;" edge="1" parent="1" target="weP9L8vADEcOZROMxbaX-5">
          <mxGeometry relative="1" as="geometry">
            <mxPoint x="227" y="700" as="sourcePoint" />
            <Array as="points">
              <mxPoint x="227" y="570" />
            </Array>
          </mxGeometry>
        </mxCell>
        <mxCell id="weP9L8vADEcOZROMxbaX-5" value="" style="rounded=0;whiteSpace=wrap;html=1;" vertex="1" parent="1">
          <mxGeometry x="317" y="540" width="40" height="60" as="geometry" />
        </mxCell>
        <mxCell id="weP9L8vADEcOZROMxbaX-55" style="edgeStyle=orthogonalEdgeStyle;rounded=0;orthogonalLoop=1;jettySize=auto;html=1;exitX=0.666;exitY=0.927;exitDx=0;exitDy=0;exitPerimeter=0;" edge="1" parent="1" source="weP9L8vADEcOZROMxbaX-7">
          <mxGeometry relative="1" as="geometry">
            <mxPoint x="1497" y="730" as="targetPoint" />
            <mxPoint x="797" y="750" as="sourcePoint" />
            <Array as="points">
              <mxPoint x="797" y="770" />
              <mxPoint x="1497" y="770" />
            </Array>
          </mxGeometry>
        </mxCell>
        <mxCell id="weP9L8vADEcOZROMxbaX-56" value="id_rf_rs1_addr" style="edgeLabel;html=1;align=center;verticalAlign=middle;resizable=0;points=[];" vertex="1" connectable="0" parent="weP9L8vADEcOZROMxbaX-55">
          <mxGeometry x="0.0693" y="2" relative="1" as="geometry">
            <mxPoint x="-206" y="-8" as="offset" />
          </mxGeometry>
        </mxCell>
        <mxCell id="weP9L8vADEcOZROMxbaX-59" style="edgeStyle=orthogonalEdgeStyle;rounded=0;orthogonalLoop=1;jettySize=auto;html=1;entryX=0.437;entryY=0.92;entryDx=0;entryDy=0;entryPerimeter=0;exitX=1.001;exitY=0.74;exitDx=0;exitDy=0;exitPerimeter=0;" edge="1" parent="1" source="weP9L8vADEcOZROMxbaX-11" target="weP9L8vADEcOZROMxbaX-7">
          <mxGeometry relative="1" as="geometry">
            <mxPoint x="1560" y="670" as="sourcePoint" />
            <Array as="points">
              <mxPoint x="1580" y="670" />
              <mxPoint x="1580" y="810" />
              <mxPoint x="756" y="810" />
            </Array>
          </mxGeometry>
        </mxCell>
        <mxCell id="weP9L8vADEcOZROMxbaX-61" value="id_rf_rs1_data" style="edgeLabel;html=1;align=center;verticalAlign=middle;resizable=0;points=[];" vertex="1" connectable="0" parent="weP9L8vADEcOZROMxbaX-59">
          <mxGeometry x="-0.0892" y="-1" relative="1" as="geometry">
            <mxPoint x="33" y="-10" as="offset" />
          </mxGeometry>
        </mxCell>
        <mxCell id="weP9L8vADEcOZROMxbaX-64" style="edgeStyle=orthogonalEdgeStyle;rounded=0;orthogonalLoop=1;jettySize=auto;html=1;exitX=0.4;exitY=0.1;exitDx=0;exitDy=0;exitPerimeter=0;entryX=0.4;entryY=0.1;entryDx=0;entryDy=0;entryPerimeter=0;startArrow=oval;startFill=1;" edge="1" parent="1" target="weP9L8vADEcOZROMxbaX-7">
          <mxGeometry relative="1" as="geometry">
            <mxPoint x="749" y="570" as="sourcePoint" />
          </mxGeometry>
        </mxCell>
        <mxCell id="weP9L8vADEcOZROMxbaX-66" style="edgeStyle=orthogonalEdgeStyle;rounded=0;orthogonalLoop=1;jettySize=auto;html=1;exitX=0.88;exitY=0.25;exitDx=0;exitDy=0;exitPerimeter=0;" edge="1" parent="1" source="weP9L8vADEcOZROMxbaX-7">
          <mxGeometry relative="1" as="geometry">
            <mxPoint x="1007" y="635" as="targetPoint" />
          </mxGeometry>
        </mxCell>
        <mxCell id="weP9L8vADEcOZROMxbaX-67" value="id_id_ex_op1" style="edgeLabel;html=1;align=center;verticalAlign=middle;resizable=0;points=[];" vertex="1" connectable="0" parent="weP9L8vADEcOZROMxbaX-66">
          <mxGeometry x="-0.103" relative="1" as="geometry">
            <mxPoint x="-1" y="-9" as="offset" />
          </mxGeometry>
        </mxCell>
        <mxCell id="weP9L8vADEcOZROMxbaX-106" style="rounded=0;orthogonalLoop=1;jettySize=auto;html=1;exitX=0.514;exitY=0.111;exitDx=0;exitDy=0;exitPerimeter=0;entryX=0;entryY=0.25;entryDx=0;entryDy=0;edgeStyle=orthogonalEdgeStyle;" edge="1" parent="1" source="weP9L8vADEcOZROMxbaX-7" target="weP9L8vADEcOZROMxbaX-12">
          <mxGeometry relative="1" as="geometry">
            <mxPoint x="927" y="280.0000000000001" as="targetPoint" />
            <Array as="points">
              <mxPoint x="770" y="273" />
            </Array>
          </mxGeometry>
        </mxCell>
        <mxCell id="weP9L8vADEcOZROMxbaX-110" value="id_ram_ren" style="edgeLabel;html=1;align=center;verticalAlign=middle;resizable=0;points=[];" vertex="1" connectable="0" parent="weP9L8vADEcOZROMxbaX-106">
          <mxGeometry x="-0.3419" y="3" relative="1" as="geometry">
            <mxPoint x="123" y="-164" as="offset" />
          </mxGeometry>
        </mxCell>
        <mxCell id="weP9L8vADEcOZROMxbaX-7" value="instruction_&lt;div&gt;decode&lt;/div&gt;" style="ellipse;shape=cloud;whiteSpace=wrap;html=1;" vertex="1" parent="1">
          <mxGeometry x="677" y="600" width="180" height="140" as="geometry" />
        </mxCell>
        <mxCell id="weP9L8vADEcOZROMxbaX-38" style="edgeStyle=orthogonalEdgeStyle;rounded=0;orthogonalLoop=1;jettySize=auto;html=1;entryX=0.008;entryY=0.346;entryDx=0;entryDy=0;startArrow=oval;startFill=1;entryPerimeter=0;" edge="1" parent="1" target="weP9L8vADEcOZROMxbaX-8">
          <mxGeometry relative="1" as="geometry">
            <mxPoint x="1008.21" y="587.12" as="targetPoint" />
            <mxPoint x="652" y="698" as="sourcePoint" />
            <Array as="points">
              <mxPoint x="652" y="590" />
              <mxPoint x="1009" y="590" />
            </Array>
          </mxGeometry>
        </mxCell>
        <mxCell id="weP9L8vADEcOZROMxbaX-93" style="edgeStyle=orthogonalEdgeStyle;rounded=0;orthogonalLoop=1;jettySize=auto;html=1;entryX=0.4;entryY=0.1;entryDx=0;entryDy=0;entryPerimeter=0;" edge="1" parent="1" target="weP9L8vADEcOZROMxbaX-9">
          <mxGeometry relative="1" as="geometry">
            <mxPoint x="1228.07" y="580" as="targetPoint" />
            <mxPoint x="1078.07" y="590" as="sourcePoint" />
            <Array as="points">
              <mxPoint x="1267" y="590" />
            </Array>
          </mxGeometry>
        </mxCell>
        <mxCell id="weP9L8vADEcOZROMxbaX-94" value="id_ex_ex_inst" style="edgeLabel;html=1;align=center;verticalAlign=middle;resizable=0;points=[];" vertex="1" connectable="0" parent="weP9L8vADEcOZROMxbaX-93">
          <mxGeometry x="-0.0407" y="-1" relative="1" as="geometry">
            <mxPoint x="-9" y="-11" as="offset" />
          </mxGeometry>
        </mxCell>
        <mxCell id="weP9L8vADEcOZROMxbaX-95" style="edgeStyle=orthogonalEdgeStyle;rounded=0;orthogonalLoop=1;jettySize=auto;html=1;exitX=1;exitY=0.25;exitDx=0;exitDy=0;entryX=0.483;entryY=0.104;entryDx=0;entryDy=0;entryPerimeter=0;" edge="1" parent="1" source="weP9L8vADEcOZROMxbaX-8" target="weP9L8vADEcOZROMxbaX-9">
          <mxGeometry relative="1" as="geometry">
            <mxPoint x="1297" y="567.6" as="targetPoint" />
            <Array as="points">
              <mxPoint x="1188" y="567" />
              <mxPoint x="1282" y="568" />
            </Array>
          </mxGeometry>
        </mxCell>
        <mxCell id="weP9L8vADEcOZROMxbaX-96" value="id_ex_ex_inst_addr" style="edgeLabel;html=1;align=center;verticalAlign=middle;resizable=0;points=[];" vertex="1" connectable="0" parent="weP9L8vADEcOZROMxbaX-95">
          <mxGeometry x="-0.2601" y="-1" relative="1" as="geometry">
            <mxPoint x="-2" y="-11" as="offset" />
          </mxGeometry>
        </mxCell>
        <mxCell id="weP9L8vADEcOZROMxbaX-100" style="edgeStyle=orthogonalEdgeStyle;rounded=0;orthogonalLoop=1;jettySize=auto;html=1;exitX=0.5;exitY=0;exitDx=0;exitDy=0;entryX=0.5;entryY=0;entryDx=0;entryDy=0;startArrow=oval;startFill=1;" edge="1" parent="1" target="weP9L8vADEcOZROMxbaX-8">
          <mxGeometry relative="1" as="geometry">
            <mxPoint x="1043.310344827586" y="470" as="sourcePoint" />
          </mxGeometry>
        </mxCell>
        <mxCell id="weP9L8vADEcOZROMxbaX-8" value="id_ex" style="rounded=0;whiteSpace=wrap;html=1;" vertex="1" parent="1">
          <mxGeometry x="1008.0699999999999" y="510" width="70" height="230" as="geometry" />
        </mxCell>
        <mxCell id="weP9L8vADEcOZROMxbaX-99" style="edgeStyle=orthogonalEdgeStyle;rounded=0;orthogonalLoop=1;jettySize=auto;html=1;entryX=0.4;entryY=0.1;entryDx=0;entryDy=0;entryPerimeter=0;exitX=0.571;exitY=0.146;exitDx=0;exitDy=0;exitPerimeter=0;" edge="1" parent="1" source="weP9L8vADEcOZROMxbaX-9" target="weP9L8vADEcOZROMxbaX-4">
          <mxGeometry relative="1" as="geometry">
            <mxPoint x="457" y="470" as="targetPoint" />
            <mxPoint x="1327" y="590" as="sourcePoint" />
            <Array as="points">
              <mxPoint x="1297" y="620" />
              <mxPoint x="1297" y="469" />
              <mxPoint x="521" y="469" />
            </Array>
          </mxGeometry>
        </mxCell>
        <mxCell id="weP9L8vADEcOZROMxbaX-101" value="ex_if_id_hold_en" style="edgeLabel;html=1;align=center;verticalAlign=middle;resizable=0;points=[];" vertex="1" connectable="0" parent="weP9L8vADEcOZROMxbaX-99">
          <mxGeometry x="0.0392" y="3" relative="1" as="geometry">
            <mxPoint x="80" y="-14" as="offset" />
          </mxGeometry>
        </mxCell>
        <mxCell id="weP9L8vADEcOZROMxbaX-102" style="edgeStyle=orthogonalEdgeStyle;rounded=0;orthogonalLoop=1;jettySize=auto;html=1;exitX=0.629;exitY=0.202;exitDx=0;exitDy=0;exitPerimeter=0;entryX=0.75;entryY=0;entryDx=0;entryDy=0;" edge="1" parent="1" source="weP9L8vADEcOZROMxbaX-9" target="weP9L8vADEcOZROMxbaX-1">
          <mxGeometry relative="1" as="geometry">
            <mxPoint x="147" y="440" as="targetPoint" />
            <Array as="points">
              <mxPoint x="1307" y="450" />
              <mxPoint x="157" y="450" />
            </Array>
          </mxGeometry>
        </mxCell>
        <mxCell id="weP9L8vADEcOZROMxbaX-103" value="ex_pc_jump_en" style="edgeLabel;html=1;align=center;verticalAlign=middle;resizable=0;points=[];" vertex="1" connectable="0" parent="weP9L8vADEcOZROMxbaX-102">
          <mxGeometry x="0.1522" y="-1" relative="1" as="geometry">
            <mxPoint x="167" y="-10" as="offset" />
          </mxGeometry>
        </mxCell>
        <mxCell id="weP9L8vADEcOZROMxbaX-113" style="edgeStyle=orthogonalEdgeStyle;rounded=0;orthogonalLoop=1;jettySize=auto;html=1;exitX=0.747;exitY=0.183;exitDx=0;exitDy=0;exitPerimeter=0;entryX=0;entryY=0.25;entryDx=0;entryDy=0;" edge="1" parent="1" source="weP9L8vADEcOZROMxbaX-9" target="weP9L8vADEcOZROMxbaX-13">
          <mxGeometry relative="1" as="geometry">
            <Array as="points">
              <mxPoint x="1328" y="273" />
            </Array>
          </mxGeometry>
        </mxCell>
        <mxCell id="weP9L8vADEcOZROMxbaX-114" value="ex_ram_wen" style="edgeLabel;html=1;align=center;verticalAlign=middle;resizable=0;points=[];" vertex="1" connectable="0" parent="weP9L8vADEcOZROMxbaX-113">
          <mxGeometry x="0.1227" y="-2" relative="1" as="geometry">
            <mxPoint x="80" y="-78" as="offset" />
          </mxGeometry>
        </mxCell>
        <mxCell id="weP9L8vADEcOZROMxbaX-115" style="edgeStyle=orthogonalEdgeStyle;rounded=0;orthogonalLoop=1;jettySize=auto;html=1;exitX=0.822;exitY=0.194;exitDx=0;exitDy=0;exitPerimeter=0;entryX=0;entryY=0.5;entryDx=0;entryDy=0;" edge="1" parent="1" source="weP9L8vADEcOZROMxbaX-9" target="weP9L8vADEcOZROMxbaX-13">
          <mxGeometry relative="1" as="geometry">
            <Array as="points">
              <mxPoint x="1341" y="305" />
            </Array>
          </mxGeometry>
        </mxCell>
        <mxCell id="weP9L8vADEcOZROMxbaX-116" value="ex_ram_w_addr" style="edgeLabel;html=1;align=center;verticalAlign=middle;resizable=0;points=[];" vertex="1" connectable="0" parent="weP9L8vADEcOZROMxbaX-115">
          <mxGeometry x="-0.0279" y="-1" relative="1" as="geometry">
            <mxPoint x="68" y="-110" as="offset" />
          </mxGeometry>
        </mxCell>
        <mxCell id="weP9L8vADEcOZROMxbaX-117" style="edgeStyle=orthogonalEdgeStyle;rounded=0;orthogonalLoop=1;jettySize=auto;html=1;exitX=0.88;exitY=0.25;exitDx=0;exitDy=0;exitPerimeter=0;entryX=0;entryY=0.75;entryDx=0;entryDy=0;" edge="1" parent="1" source="weP9L8vADEcOZROMxbaX-9" target="weP9L8vADEcOZROMxbaX-13">
          <mxGeometry relative="1" as="geometry">
            <Array as="points">
              <mxPoint x="1350" y="635" />
              <mxPoint x="1350" y="338" />
            </Array>
          </mxGeometry>
        </mxCell>
        <mxCell id="weP9L8vADEcOZROMxbaX-118" value="ex_ram_w_data" style="edgeLabel;html=1;align=center;verticalAlign=middle;resizable=0;points=[];" vertex="1" connectable="0" parent="weP9L8vADEcOZROMxbaX-117">
          <mxGeometry x="0.0622" y="-2" relative="1" as="geometry">
            <mxPoint x="68" y="-85" as="offset" />
          </mxGeometry>
        </mxCell>
        <mxCell id="weP9L8vADEcOZROMxbaX-9" value="execution" style="ellipse;shape=cloud;whiteSpace=wrap;html=1;" vertex="1" parent="1">
          <mxGeometry x="1197" y="600" width="175" height="140" as="geometry" />
        </mxCell>
        <mxCell id="weP9L8vADEcOZROMxbaX-11" value="register_file" style="rounded=0;whiteSpace=wrap;html=1;" vertex="1" parent="1">
          <mxGeometry x="1487" y="500" width="70" height="230" as="geometry" />
        </mxCell>
        <mxCell id="weP9L8vADEcOZROMxbaX-108" style="rounded=0;orthogonalLoop=1;jettySize=auto;html=1;exitX=0.737;exitY=0.18;exitDx=0;exitDy=0;entryX=0;entryY=0.75;entryDx=0;entryDy=0;exitPerimeter=0;edgeStyle=orthogonalEdgeStyle;" edge="1" parent="1" source="weP9L8vADEcOZROMxbaX-7" target="weP9L8vADEcOZROMxbaX-12">
          <mxGeometry relative="1" as="geometry">
            <mxPoint x="897" y="510" as="sourcePoint" />
            <Array as="points">
              <mxPoint x="810" y="338" />
            </Array>
          </mxGeometry>
        </mxCell>
        <mxCell id="weP9L8vADEcOZROMxbaX-111" value="id_ram_r_addr" style="edgeLabel;html=1;align=center;verticalAlign=middle;resizable=0;points=[];" vertex="1" connectable="0" parent="weP9L8vADEcOZROMxbaX-108">
          <mxGeometry x="-0.1306" relative="1" as="geometry">
            <mxPoint x="90" y="-94" as="offset" />
          </mxGeometry>
        </mxCell>
        <mxCell id="weP9L8vADEcOZROMxbaX-12" value="ram" style="rounded=0;whiteSpace=wrap;html=1;" vertex="1" parent="1">
          <mxGeometry x="1008.0699999999999" y="240" width="70" height="130" as="geometry" />
        </mxCell>
        <mxCell id="weP9L8vADEcOZROMxbaX-13" value="ram" style="rounded=0;whiteSpace=wrap;html=1;" vertex="1" parent="1">
          <mxGeometry x="1487" y="240" width="70" height="130" as="geometry" />
        </mxCell>
        <mxCell id="weP9L8vADEcOZROMxbaX-15" value="" style="endArrow=none;html=1;rounded=0;" edge="1" parent="1">
          <mxGeometry width="50" height="50" relative="1" as="geometry">
            <mxPoint x="287" y="620" as="sourcePoint" />
            <mxPoint x="287" y="520" as="targetPoint" />
          </mxGeometry>
        </mxCell>
        <mxCell id="weP9L8vADEcOZROMxbaX-16" value="" style="endArrow=none;html=1;rounded=0;" edge="1" parent="1">
          <mxGeometry width="50" height="50" relative="1" as="geometry">
            <mxPoint x="287" y="620" as="sourcePoint" />
            <mxPoint x="487" y="620" as="targetPoint" />
          </mxGeometry>
        </mxCell>
        <mxCell id="weP9L8vADEcOZROMxbaX-17" value="" style="endArrow=none;html=1;rounded=0;" edge="1" parent="1">
          <mxGeometry width="50" height="50" relative="1" as="geometry">
            <mxPoint x="287" y="520" as="sourcePoint" />
            <mxPoint x="567" y="520" as="targetPoint" />
          </mxGeometry>
        </mxCell>
        <mxCell id="weP9L8vADEcOZROMxbaX-18" value="" style="endArrow=none;html=1;rounded=0;" edge="1" parent="1">
          <mxGeometry width="50" height="50" relative="1" as="geometry">
            <mxPoint x="487" y="730" as="sourcePoint" />
            <mxPoint x="487" y="620" as="targetPoint" />
          </mxGeometry>
        </mxCell>
        <mxCell id="weP9L8vADEcOZROMxbaX-19" value="" style="endArrow=none;html=1;rounded=0;" edge="1" parent="1">
          <mxGeometry width="50" height="50" relative="1" as="geometry">
            <mxPoint x="567" y="730" as="sourcePoint" />
            <mxPoint x="567" y="520" as="targetPoint" />
          </mxGeometry>
        </mxCell>
        <mxCell id="weP9L8vADEcOZROMxbaX-20" value="" style="endArrow=none;html=1;rounded=0;" edge="1" parent="1">
          <mxGeometry width="50" height="50" relative="1" as="geometry">
            <mxPoint x="487" y="730" as="sourcePoint" />
            <mxPoint x="567" y="730" as="targetPoint" />
          </mxGeometry>
        </mxCell>
        <mxCell id="weP9L8vADEcOZROMxbaX-21" value="if_id" style="text;html=1;align=center;verticalAlign=middle;resizable=0;points=[];autosize=1;strokeColor=none;fillColor=none;" vertex="1" parent="1">
          <mxGeometry x="447" y="530" width="50" height="30" as="geometry" />
        </mxCell>
        <mxCell id="weP9L8vADEcOZROMxbaX-25" style="edgeStyle=orthogonalEdgeStyle;rounded=0;orthogonalLoop=1;jettySize=auto;html=1;exitX=1;exitY=0.5;exitDx=0;exitDy=0;entryX=0.16;entryY=0.55;entryDx=0;entryDy=0;entryPerimeter=0;" edge="1" parent="1" source="weP9L8vADEcOZROMxbaX-2" target="weP9L8vADEcOZROMxbaX-4">
          <mxGeometry relative="1" as="geometry" />
        </mxCell>
        <mxCell id="weP9L8vADEcOZROMxbaX-26" value="if_if_id_inst" style="edgeLabel;html=1;align=center;verticalAlign=middle;resizable=0;points=[];" vertex="1" connectable="0" parent="weP9L8vADEcOZROMxbaX-25">
          <mxGeometry x="-0.184" y="1" relative="1" as="geometry">
            <mxPoint y="-10" as="offset" />
          </mxGeometry>
        </mxCell>
        <mxCell id="weP9L8vADEcOZROMxbaX-27" style="edgeStyle=orthogonalEdgeStyle;rounded=0;orthogonalLoop=1;jettySize=auto;html=1;exitX=0.875;exitY=0.5;exitDx=0;exitDy=0;exitPerimeter=0;entryX=0.111;entryY=0.7;entryDx=0;entryDy=0;entryPerimeter=0;" edge="1" parent="1" source="weP9L8vADEcOZROMxbaX-4" target="weP9L8vADEcOZROMxbaX-7">
          <mxGeometry relative="1" as="geometry">
            <Array as="points" />
          </mxGeometry>
        </mxCell>
        <mxCell id="weP9L8vADEcOZROMxbaX-28" value="if_id_id_inst" style="edgeLabel;html=1;align=center;verticalAlign=middle;resizable=0;points=[];" vertex="1" connectable="0" parent="weP9L8vADEcOZROMxbaX-27">
          <mxGeometry x="0.1046" y="1" relative="1" as="geometry">
            <mxPoint x="-19" y="-9" as="offset" />
          </mxGeometry>
        </mxCell>
        <mxCell id="weP9L8vADEcOZROMxbaX-29" value="" style="triangle;whiteSpace=wrap;html=1;rotation=90;" vertex="1" parent="1">
          <mxGeometry x="332" y="540" width="10" height="10" as="geometry" />
        </mxCell>
        <mxCell id="weP9L8vADEcOZROMxbaX-36" style="edgeStyle=orthogonalEdgeStyle;rounded=0;orthogonalLoop=1;jettySize=auto;html=1;exitX=1;exitY=0.5;exitDx=0;exitDy=0;entryX=-0.002;entryY=0.262;entryDx=0;entryDy=0;entryPerimeter=0;" edge="1" parent="1" source="weP9L8vADEcOZROMxbaX-5" target="weP9L8vADEcOZROMxbaX-8">
          <mxGeometry relative="1" as="geometry">
            <mxPoint x="957" y="600" as="targetPoint" />
            <Array as="points" />
          </mxGeometry>
        </mxCell>
        <mxCell id="weP9L8vADEcOZROMxbaX-65" value="if_id_id_ex_inst_addr" style="edgeLabel;html=1;align=center;verticalAlign=middle;resizable=0;points=[];" vertex="1" connectable="0" parent="weP9L8vADEcOZROMxbaX-36">
          <mxGeometry x="0.2847" y="1" relative="1" as="geometry">
            <mxPoint x="-28" y="-11" as="offset" />
          </mxGeometry>
        </mxCell>
        <mxCell id="weP9L8vADEcOZROMxbaX-57" style="edgeStyle=orthogonalEdgeStyle;rounded=0;orthogonalLoop=1;jettySize=auto;html=1;entryX=0.295;entryY=0.994;entryDx=0;entryDy=0;entryPerimeter=0;exitX=0.559;exitY=0.95;exitDx=0;exitDy=0;exitPerimeter=0;" edge="1" parent="1" source="weP9L8vADEcOZROMxbaX-7" target="weP9L8vADEcOZROMxbaX-11">
          <mxGeometry relative="1" as="geometry">
            <mxPoint x="1261" y="750" as="targetPoint" />
            <mxPoint x="776" y="750" as="sourcePoint" />
            <Array as="points">
              <mxPoint x="778" y="790" />
              <mxPoint x="1507" y="790" />
              <mxPoint x="1507" y="729" />
            </Array>
          </mxGeometry>
        </mxCell>
        <mxCell id="weP9L8vADEcOZROMxbaX-58" value="id_rf_rs2_addr" style="edgeLabel;html=1;align=center;verticalAlign=middle;resizable=0;points=[];" vertex="1" connectable="0" parent="weP9L8vADEcOZROMxbaX-57">
          <mxGeometry x="0.0693" y="2" relative="1" as="geometry">
            <mxPoint x="-202" y="-9" as="offset" />
          </mxGeometry>
        </mxCell>
        <mxCell id="weP9L8vADEcOZROMxbaX-62" style="edgeStyle=orthogonalEdgeStyle;rounded=0;orthogonalLoop=1;jettySize=auto;html=1;entryX=0.334;entryY=0.844;entryDx=0;entryDy=0;entryPerimeter=0;exitX=0.996;exitY=0.261;exitDx=0;exitDy=0;exitPerimeter=0;" edge="1" parent="1" source="weP9L8vADEcOZROMxbaX-11" target="weP9L8vADEcOZROMxbaX-7">
          <mxGeometry relative="1" as="geometry">
            <mxPoint x="709" y="734" as="targetPoint" />
            <mxPoint x="1560" y="560" as="sourcePoint" />
            <Array as="points">
              <mxPoint x="1600" y="560" />
              <mxPoint x="1600" y="830" />
              <mxPoint x="737" y="830" />
            </Array>
          </mxGeometry>
        </mxCell>
        <mxCell id="weP9L8vADEcOZROMxbaX-63" value="id_rf_rs2_data" style="edgeLabel;html=1;align=center;verticalAlign=middle;resizable=0;points=[];" vertex="1" connectable="0" parent="weP9L8vADEcOZROMxbaX-62">
          <mxGeometry x="-0.0892" y="-1" relative="1" as="geometry">
            <mxPoint x="-51" y="-9" as="offset" />
          </mxGeometry>
        </mxCell>
        <mxCell id="weP9L8vADEcOZROMxbaX-68" style="edgeStyle=orthogonalEdgeStyle;rounded=0;orthogonalLoop=1;jettySize=auto;html=1;exitX=0.916;exitY=0.378;exitDx=0;exitDy=0;exitPerimeter=0;" edge="1" parent="1" source="weP9L8vADEcOZROMxbaX-7">
          <mxGeometry relative="1" as="geometry">
            <mxPoint x="1008.0699999999999" y="653" as="targetPoint" />
            <mxPoint x="839.3599999999999" y="653.06" as="sourcePoint" />
          </mxGeometry>
        </mxCell>
        <mxCell id="weP9L8vADEcOZROMxbaX-69" value="id_id_ex_op2" style="edgeLabel;html=1;align=center;verticalAlign=middle;resizable=0;points=[];" vertex="1" connectable="0" parent="weP9L8vADEcOZROMxbaX-68">
          <mxGeometry x="-0.103" relative="1" as="geometry">
            <mxPoint x="-1" y="-9" as="offset" />
          </mxGeometry>
        </mxCell>
        <mxCell id="weP9L8vADEcOZROMxbaX-70" style="edgeStyle=orthogonalEdgeStyle;rounded=0;orthogonalLoop=1;jettySize=auto;html=1;exitX=0.875;exitY=0.5;exitDx=0;exitDy=0;exitPerimeter=0;" edge="1" parent="1" source="weP9L8vADEcOZROMxbaX-7">
          <mxGeometry relative="1" as="geometry">
            <mxPoint x="1008.0699999999999" y="669.8399999999999" as="targetPoint" />
            <mxPoint x="844.5799999999999" y="669.6799999999998" as="sourcePoint" />
          </mxGeometry>
        </mxCell>
        <mxCell id="weP9L8vADEcOZROMxbaX-71" value="id_id_ex_rd_addr" style="edgeLabel;html=1;align=center;verticalAlign=middle;resizable=0;points=[];" vertex="1" connectable="0" parent="weP9L8vADEcOZROMxbaX-70">
          <mxGeometry x="-0.103" relative="1" as="geometry">
            <mxPoint x="-1" y="-9" as="offset" />
          </mxGeometry>
        </mxCell>
        <mxCell id="weP9L8vADEcOZROMxbaX-72" style="edgeStyle=orthogonalEdgeStyle;rounded=0;orthogonalLoop=1;jettySize=auto;html=1;exitX=0.957;exitY=0.614;exitDx=0;exitDy=0;exitPerimeter=0;" edge="1" parent="1">
          <mxGeometry relative="1" as="geometry">
            <mxPoint x="1008.0699999999999" y="687" as="targetPoint" />
            <mxPoint x="849.26" y="686.9599999999999" as="sourcePoint" />
          </mxGeometry>
        </mxCell>
        <mxCell id="weP9L8vADEcOZROMxbaX-73" value="id_id_ex_rd_wen" style="edgeLabel;html=1;align=center;verticalAlign=middle;resizable=0;points=[];" vertex="1" connectable="0" parent="weP9L8vADEcOZROMxbaX-72">
          <mxGeometry x="-0.103" relative="1" as="geometry">
            <mxPoint x="-1" y="-9" as="offset" />
          </mxGeometry>
        </mxCell>
        <mxCell id="weP9L8vADEcOZROMxbaX-74" style="edgeStyle=orthogonalEdgeStyle;rounded=0;orthogonalLoop=1;jettySize=auto;html=1;exitX=0.931;exitY=0.747;exitDx=0;exitDy=0;exitPerimeter=0;" edge="1" parent="1" source="weP9L8vADEcOZROMxbaX-7">
          <mxGeometry relative="1" as="geometry">
            <mxPoint x="1008.0699999999999" y="704.91" as="targetPoint" />
            <mxPoint x="849.26" y="704.8699999999999" as="sourcePoint" />
          </mxGeometry>
        </mxCell>
        <mxCell id="weP9L8vADEcOZROMxbaX-75" value="id_id_ex_base_addr" style="edgeLabel;html=1;align=center;verticalAlign=middle;resizable=0;points=[];" vertex="1" connectable="0" parent="weP9L8vADEcOZROMxbaX-74">
          <mxGeometry x="-0.103" relative="1" as="geometry">
            <mxPoint x="-1" y="-9" as="offset" />
          </mxGeometry>
        </mxCell>
        <mxCell id="weP9L8vADEcOZROMxbaX-76" style="edgeStyle=orthogonalEdgeStyle;rounded=0;orthogonalLoop=1;jettySize=auto;html=1;exitX=0.751;exitY=0.872;exitDx=0;exitDy=0;exitPerimeter=0;" edge="1" parent="1" source="weP9L8vADEcOZROMxbaX-7">
          <mxGeometry relative="1" as="geometry">
            <mxPoint x="1008" y="722" as="targetPoint" />
            <mxPoint x="813.04" y="720.52" as="sourcePoint" />
            <Array as="points">
              <mxPoint x="1008" y="722" />
            </Array>
          </mxGeometry>
        </mxCell>
        <mxCell id="weP9L8vADEcOZROMxbaX-77" value="id_id_ex_addr_offset" style="edgeLabel;html=1;align=center;verticalAlign=middle;resizable=0;points=[];" vertex="1" connectable="0" parent="weP9L8vADEcOZROMxbaX-76">
          <mxGeometry x="-0.103" relative="1" as="geometry">
            <mxPoint x="16" y="-9" as="offset" />
          </mxGeometry>
        </mxCell>
        <mxCell id="weP9L8vADEcOZROMxbaX-81" style="edgeStyle=orthogonalEdgeStyle;rounded=0;orthogonalLoop=1;jettySize=auto;html=1;exitX=0.88;exitY=0.25;exitDx=0;exitDy=0;exitPerimeter=0;entryX=0.25;entryY=0.25;entryDx=0;entryDy=0;entryPerimeter=0;" edge="1" parent="1" target="weP9L8vADEcOZROMxbaX-9">
          <mxGeometry relative="1" as="geometry">
            <mxPoint x="1250.07" y="634.75" as="targetPoint" />
            <mxPoint x="1078.07" y="634.75" as="sourcePoint" />
          </mxGeometry>
        </mxCell>
        <mxCell id="weP9L8vADEcOZROMxbaX-82" value="id_ex_ex_op1" style="edgeLabel;html=1;align=center;verticalAlign=middle;resizable=0;points=[];" vertex="1" connectable="0" parent="weP9L8vADEcOZROMxbaX-81">
          <mxGeometry x="-0.103" relative="1" as="geometry">
            <mxPoint x="-1" y="-9" as="offset" />
          </mxGeometry>
        </mxCell>
        <mxCell id="weP9L8vADEcOZROMxbaX-83" style="edgeStyle=orthogonalEdgeStyle;rounded=0;orthogonalLoop=1;jettySize=auto;html=1;exitX=0.88;exitY=0.25;exitDx=0;exitDy=0;exitPerimeter=0;entryX=0.073;entryY=0.377;entryDx=0;entryDy=0;entryPerimeter=0;" edge="1" parent="1" target="weP9L8vADEcOZROMxbaX-9">
          <mxGeometry relative="1" as="geometry">
            <mxPoint x="1207" y="653" as="targetPoint" />
            <mxPoint x="1078.07" y="653" as="sourcePoint" />
          </mxGeometry>
        </mxCell>
        <mxCell id="weP9L8vADEcOZROMxbaX-84" value="id_ex_ex_op2" style="edgeLabel;html=1;align=center;verticalAlign=middle;resizable=0;points=[];" vertex="1" connectable="0" parent="weP9L8vADEcOZROMxbaX-83">
          <mxGeometry x="-0.103" relative="1" as="geometry">
            <mxPoint x="-1" y="-9" as="offset" />
          </mxGeometry>
        </mxCell>
        <mxCell id="weP9L8vADEcOZROMxbaX-85" style="edgeStyle=orthogonalEdgeStyle;rounded=0;orthogonalLoop=1;jettySize=auto;html=1;exitX=0.88;exitY=0.25;exitDx=0;exitDy=0;exitPerimeter=0;entryX=0.088;entryY=0.497;entryDx=0;entryDy=0;entryPerimeter=0;" edge="1" parent="1" target="weP9L8vADEcOZROMxbaX-9">
          <mxGeometry relative="1" as="geometry">
            <mxPoint x="1210" y="669.6700000000001" as="targetPoint" />
            <mxPoint x="1078.07" y="669.6700000000001" as="sourcePoint" />
          </mxGeometry>
        </mxCell>
        <mxCell id="weP9L8vADEcOZROMxbaX-86" value="id_ex_ex_base_addr" style="edgeLabel;html=1;align=center;verticalAlign=middle;resizable=0;points=[];" vertex="1" connectable="0" parent="weP9L8vADEcOZROMxbaX-85">
          <mxGeometry x="-0.103" relative="1" as="geometry">
            <mxPoint x="-1" y="-8" as="offset" />
          </mxGeometry>
        </mxCell>
        <mxCell id="weP9L8vADEcOZROMxbaX-87" style="edgeStyle=orthogonalEdgeStyle;rounded=0;orthogonalLoop=1;jettySize=auto;html=1;exitX=0.88;exitY=0.25;exitDx=0;exitDy=0;exitPerimeter=0;entryX=0.106;entryY=0.623;entryDx=0;entryDy=0;entryPerimeter=0;" edge="1" parent="1" target="weP9L8vADEcOZROMxbaX-9">
          <mxGeometry relative="1" as="geometry">
            <mxPoint x="1212" y="687.33" as="targetPoint" />
            <mxPoint x="1078.07" y="687" as="sourcePoint" />
          </mxGeometry>
        </mxCell>
        <mxCell id="weP9L8vADEcOZROMxbaX-88" value="id_ex_ex_addr_offset" style="edgeLabel;html=1;align=center;verticalAlign=middle;resizable=0;points=[];" vertex="1" connectable="0" parent="weP9L8vADEcOZROMxbaX-87">
          <mxGeometry x="-0.103" relative="1" as="geometry">
            <mxPoint x="-1" y="-9" as="offset" />
          </mxGeometry>
        </mxCell>
        <mxCell id="weP9L8vADEcOZROMxbaX-89" style="edgeStyle=orthogonalEdgeStyle;rounded=0;orthogonalLoop=1;jettySize=auto;html=1;exitX=0.88;exitY=0.25;exitDx=0;exitDy=0;exitPerimeter=0;entryX=0.017;entryY=0.897;entryDx=0;entryDy=0;entryPerimeter=0;" edge="1" parent="1" target="weP9L8vADEcOZROMxbaX-11">
          <mxGeometry relative="1" as="geometry">
            <mxPoint x="1437" y="706" as="targetPoint" />
            <mxPoint x="1078.07" y="706" as="sourcePoint" />
            <Array as="points">
              <mxPoint x="1177" y="706" />
              <mxPoint x="1177" y="740" />
              <mxPoint x="1437" y="740" />
              <mxPoint x="1437" y="706" />
            </Array>
          </mxGeometry>
        </mxCell>
        <mxCell id="weP9L8vADEcOZROMxbaX-90" value="id_ex_rf_rd_addr" style="edgeLabel;html=1;align=center;verticalAlign=middle;resizable=0;points=[];" vertex="1" connectable="0" parent="weP9L8vADEcOZROMxbaX-89">
          <mxGeometry x="-0.103" relative="1" as="geometry">
            <mxPoint x="-124" y="-43" as="offset" />
          </mxGeometry>
        </mxCell>
        <mxCell id="weP9L8vADEcOZROMxbaX-91" style="edgeStyle=orthogonalEdgeStyle;rounded=0;orthogonalLoop=1;jettySize=auto;html=1;exitX=0.88;exitY=0.25;exitDx=0;exitDy=0;exitPerimeter=0;entryX=0;entryY=0.944;entryDx=0;entryDy=0;entryPerimeter=0;" edge="1" parent="1" target="weP9L8vADEcOZROMxbaX-11">
          <mxGeometry relative="1" as="geometry">
            <mxPoint x="1447" y="660" as="targetPoint" />
            <mxPoint x="1078.07" y="724" as="sourcePoint" />
            <Array as="points">
              <mxPoint x="1078" y="725" />
              <mxPoint x="1168" y="725" />
              <mxPoint x="1168" y="750" />
              <mxPoint x="1447" y="750" />
              <mxPoint x="1447" y="717" />
            </Array>
          </mxGeometry>
        </mxCell>
        <mxCell id="weP9L8vADEcOZROMxbaX-92" value="id_ex_rf_rd_wen" style="edgeLabel;html=1;align=center;verticalAlign=middle;resizable=0;points=[];" vertex="1" connectable="0" parent="weP9L8vADEcOZROMxbaX-91">
          <mxGeometry x="-0.103" relative="1" as="geometry">
            <mxPoint x="-131" y="-35" as="offset" />
          </mxGeometry>
        </mxCell>
        <mxCell id="weP9L8vADEcOZROMxbaX-97" style="edgeStyle=orthogonalEdgeStyle;rounded=0;orthogonalLoop=1;jettySize=auto;html=1;entryX=0.011;entryY=0.737;entryDx=0;entryDy=0;entryPerimeter=0;exitX=0.96;exitY=0.644;exitDx=0;exitDy=0;exitPerimeter=0;" edge="1" parent="1" source="weP9L8vADEcOZROMxbaX-9">
          <mxGeometry relative="1" as="geometry">
            <mxPoint x="1397" y="690" as="sourcePoint" />
            <mxPoint x="1487" y="690" as="targetPoint" />
          </mxGeometry>
        </mxCell>
        <mxCell id="weP9L8vADEcOZROMxbaX-98" value="ex_rf_reg_wdata" style="edgeLabel;html=1;align=center;verticalAlign=middle;resizable=0;points=[];" vertex="1" connectable="0" parent="weP9L8vADEcOZROMxbaX-97">
          <mxGeometry x="0.1606" y="1" relative="1" as="geometry">
            <mxPoint x="-12" y="-9" as="offset" />
          </mxGeometry>
        </mxCell>
        <mxCell id="weP9L8vADEcOZROMxbaX-104" style="edgeStyle=orthogonalEdgeStyle;rounded=0;orthogonalLoop=1;jettySize=auto;html=1;entryX=0.75;entryY=0;entryDx=0;entryDy=0;exitX=0.682;exitY=0.18;exitDx=0;exitDy=0;exitPerimeter=0;" edge="1" parent="1" source="weP9L8vADEcOZROMxbaX-9">
          <mxGeometry relative="1" as="geometry">
            <mxPoint x="97" y="670" as="targetPoint" />
            <mxPoint x="1317" y="600" as="sourcePoint" />
            <Array as="points">
              <mxPoint x="1316" y="600" />
              <mxPoint x="1317" y="430" />
              <mxPoint x="97" y="430" />
            </Array>
          </mxGeometry>
        </mxCell>
        <mxCell id="weP9L8vADEcOZROMxbaX-105" value="ex_pc_jump_en" style="edgeLabel;html=1;align=center;verticalAlign=middle;resizable=0;points=[];" vertex="1" connectable="0" parent="weP9L8vADEcOZROMxbaX-104">
          <mxGeometry x="0.1522" y="-1" relative="1" as="geometry">
            <mxPoint x="202" y="-10" as="offset" />
          </mxGeometry>
        </mxCell>
        <mxCell id="weP9L8vADEcOZROMxbaX-109" style="edgeStyle=orthogonalEdgeStyle;rounded=0;orthogonalLoop=1;jettySize=auto;html=1;exitX=1;exitY=0.5;exitDx=0;exitDy=0;entryX=0.301;entryY=0.147;entryDx=0;entryDy=0;entryPerimeter=0;" edge="1" parent="1" source="weP9L8vADEcOZROMxbaX-12" target="weP9L8vADEcOZROMxbaX-9">
          <mxGeometry relative="1" as="geometry" />
        </mxCell>
        <mxCell id="weP9L8vADEcOZROMxbaX-112" value="ram_ex_r_data" style="edgeLabel;html=1;align=center;verticalAlign=middle;resizable=0;points=[];" vertex="1" connectable="0" parent="weP9L8vADEcOZROMxbaX-109">
          <mxGeometry x="0.1976" relative="1" as="geometry">
            <mxPoint x="-80" y="-135" as="offset" />
          </mxGeometry>
        </mxCell>
        <mxCell id="weP9L8vADEcOZROMxbaX-121" value="sequential logic" style="rounded=0;whiteSpace=wrap;html=1;" vertex="1" parent="1">
          <mxGeometry x="40" y="120" width="160" height="70" as="geometry" />
        </mxCell>
        <mxCell id="weP9L8vADEcOZROMxbaX-123" value="combinational logic" style="ellipse;shape=cloud;whiteSpace=wrap;html=1;" vertex="1" parent="1">
          <mxGeometry x="30" y="200" width="180" height="100" as="geometry" />
        </mxCell>
        <mxCell id="weP9L8vADEcOZROMxbaX-124" value="" style="endArrow=none;dashed=1;html=1;dashPattern=1 3;strokeWidth=2;rounded=0;" edge="1" parent="1">
          <mxGeometry width="50" height="50" relative="1" as="geometry">
            <mxPoint x="210" y="1000" as="sourcePoint" />
            <mxPoint x="210" y="190" as="targetPoint" />
          </mxGeometry>
        </mxCell>
        <mxCell id="weP9L8vADEcOZROMxbaX-125" value="" style="endArrow=none;dashed=1;html=1;dashPattern=1 3;strokeWidth=2;rounded=0;" edge="1" parent="1">
          <mxGeometry width="50" height="50" relative="1" as="geometry">
            <mxPoint x="600" y="1000" as="sourcePoint" />
            <mxPoint x="600" y="190" as="targetPoint" />
          </mxGeometry>
        </mxCell>
        <mxCell id="weP9L8vADEcOZROMxbaX-126" value="" style="endArrow=none;dashed=1;html=1;dashPattern=1 3;strokeWidth=2;rounded=0;" edge="1" parent="1">
          <mxGeometry width="50" height="50" relative="1" as="geometry">
            <mxPoint x="1150" y="1000" as="sourcePoint" />
            <mxPoint x="1150" y="190" as="targetPoint" />
          </mxGeometry>
        </mxCell>
        <mxCell id="weP9L8vADEcOZROMxbaX-128" value="&lt;font style=&quot;font-size: 36px;&quot;&gt;instruction fetch&lt;/font&gt;" style="text;html=1;align=center;verticalAlign=middle;resizable=0;points=[];autosize=1;strokeColor=none;fillColor=none;" vertex="1" parent="1">
          <mxGeometry x="270" y="910" width="280" height="60" as="geometry" />
        </mxCell>
        <mxCell id="weP9L8vADEcOZROMxbaX-129" value="&lt;font style=&quot;font-size: 36px;&quot;&gt;instruction decode&lt;/font&gt;" style="text;html=1;align=center;verticalAlign=middle;resizable=0;points=[];autosize=1;strokeColor=none;fillColor=none;" vertex="1" parent="1">
          <mxGeometry x="730" y="913" width="320" height="60" as="geometry" />
        </mxCell>
        <mxCell id="weP9L8vADEcOZROMxbaX-130" value="&lt;font style=&quot;font-size: 36px;&quot;&gt;execution&lt;/font&gt;" style="text;html=1;align=center;verticalAlign=middle;resizable=0;points=[];autosize=1;strokeColor=none;fillColor=none;" vertex="1" parent="1">
          <mxGeometry x="1320" y="913" width="180" height="60" as="geometry" />
        </mxCell>
      </root>
    </mxGraphModel>
  </diagram>
</mxfile>
